<svg width="98" height="138" viewBox="0 0 98 138" fill="none" xmlns="http://www.w3.org/2000/svg">
<path d="M20.2974 80.7705L1.14293 46.8548C1.14293 46.8548 1.52954 44.3243 3.07596 42.6373C3.60314 43.8674 10.6323 31.7421 10.6323 32.0935C10.6323 32.445 20.2974 29.1061 27.5023 26.4702C34.7072 23.8342 37.3432 20.6711 38.9247 20.1439C40.5063 19.6167 55.0918 6.61278 55.0918 5.90987C55.0918 5.20695 60.188 4.3283 61.5938 4.50403C62.9996 4.67975 72.489 0.813711 74.0706 1.16517C75.6521 1.51663 82.3298 12.4118 82.3298 13.8177C82.3298 14.9423 91.9364 29.7505 96.7396 37.0139V112.402L79.5182 122.77C73.3091 127.222 60.3988 136.266 58.4307 136.828C55.9705 137.531 47.5355 125.054 47.5355 122.77C47.5355 120.942 29.3768 94.0088 20.2974 80.7705Z" stroke="#FFB800" stroke-width="2.27023" stroke-linejoin="round"/>
</svg>
