<svg width="89" height="186" viewBox="0 0 89 186" fill="none" xmlns="http://www.w3.org/2000/svg">
<path d="M70.1175 180.579C70.4632 180.26 70.485 179.721 70.1662 179.376L64.9707 173.742C64.6519 173.396 64.1132 173.375 63.7675 173.693C63.4218 174.012 63.4 174.551 63.7188 174.897L68.337 179.904L63.3292 184.522C62.9835 184.841 62.9617 185.38 63.2805 185.726C63.5993 186.071 64.1381 186.093 64.4838 185.774L70.1175 180.579ZM69.5746 179.102C69.0098 179.079 68.4397 179.048 67.8648 179.007L67.7442 180.706C68.3363 180.748 68.9237 180.78 69.5058 180.804L69.5746 179.102ZM64.4325 178.66C63.3125 178.513 62.1785 178.333 61.0335 178.116L60.7163 179.789C61.8933 180.012 63.0594 180.198 64.2115 180.349L64.4325 178.66ZM57.6697 177.38C56.569 177.106 55.4612 176.799 54.3489 176.457L53.8481 178.085C54.9906 178.436 56.1286 178.752 57.2595 179.032L57.6697 177.38ZM51.082 175.353C50.0154 174.96 48.9471 174.533 47.8792 174.072L47.2041 175.636C48.3006 176.109 49.3976 176.547 50.4929 176.951L51.082 175.353ZM44.7502 172.62C43.7318 172.113 42.7158 171.573 41.7041 171L40.8644 172.482C41.9029 173.07 42.946 173.624 43.9915 174.144L44.7502 172.62ZM38.7499 169.22C37.7923 168.607 36.8405 167.962 35.896 167.285L34.9033 168.669C35.8725 169.364 36.8493 170.025 37.8321 170.654L38.7499 169.22ZM33.1472 165.201C32.2593 164.491 31.3796 163.749 30.5098 162.976L29.3783 164.249C30.2703 165.042 31.1724 165.802 32.0832 166.531L33.1472 165.201ZM27.9916 160.62C27.1823 159.823 26.3832 158.996 25.5955 158.139L24.3417 159.292C25.1486 160.17 25.9673 161.017 26.7967 161.833L27.9916 160.62ZM23.3243 155.544C22.5975 154.672 21.8822 153.771 21.1794 152.842L19.821 153.869C20.5399 154.82 21.272 155.741 22.016 156.634L23.3243 155.544ZM19.1612 150.041C18.5178 149.104 17.8867 148.14 17.2689 147.149L15.8237 148.05C16.4547 149.063 17.0995 150.047 17.7572 151.005L19.1612 150.041ZM15.5008 144.173C14.9389 143.18 14.3898 142.161 13.8544 141.117L12.3391 141.894C12.885 142.959 13.4451 143.998 14.0185 145.011L15.5008 144.173ZM12.3422 138.02C11.8636 136.99 11.3979 135.937 10.9458 134.86L9.37557 135.519C9.83586 136.615 10.3101 137.688 10.7977 138.737L12.3422 138.02ZM9.66111 131.639C9.25613 130.569 8.86406 129.477 8.4855 128.363L6.87305 128.911C7.25779 130.043 7.65641 131.153 8.06833 132.242L9.66111 131.639ZM7.4296 125.082C7.09781 123.992 6.77854 122.881 6.4723 121.751L4.82851 122.196C5.13927 123.343 5.46338 124.47 5.80032 125.578L7.4296 125.082ZM5.60962 118.367C5.34581 117.264 5.09399 116.144 4.85459 115.005L3.188 115.356C3.4306 116.51 3.68586 117.645 3.95339 118.763L5.60962 118.367ZM4.18544 111.596C3.97958 110.469 3.78554 109.324 3.60368 108.163L1.92114 108.426C2.10519 109.602 2.30164 110.76 2.51012 111.902L4.18544 111.596ZM3.1106 104.743C2.95975 103.6 2.82036 102.442 2.69275 101.268L0.999688 101.452C1.1287 102.639 1.26965 103.81 1.42224 104.966L3.1106 104.743ZM2.35753 97.8341C2.25818 96.6893 2.16973 95.5297 2.09246 94.3552L0.393112 94.467C0.471144 95.6532 0.560491 96.8246 0.660881 97.9813L2.35753 97.8341ZM1.89939 90.8937C1.84675 89.7476 1.80449 88.5879 1.77285 87.4144L0.0704442 87.4602C0.102365 88.6444 0.145015 89.8149 0.198162 90.9719L1.89939 90.8937ZM1.71082 83.9386C1.70562 83.3527 1.70301 82.7635 1.70301 82.171H-1.97332e-05C-1.97332e-05 82.7685 0.00261724 83.3628 0.00786389 83.9538L1.71082 83.9386ZM1.70301 82.171C1.70301 81.5954 1.70691 81.0239 1.71467 80.4565L0.0118006 80.4332C0.0039368 81.0084 -1.97332e-05 81.5877 -1.97332e-05 82.171H1.70301ZM1.80703 77.1011C1.85425 75.9675 1.91734 74.8511 1.99583 73.7514L0.297127 73.6301C0.217417 74.7468 0.153391 75.8801 0.105478 77.0302L1.80703 77.1011ZM2.286 70.4156C2.40241 69.2848 2.53565 68.1726 2.6852 67.0788L0.997867 66.8481C0.845726 67.961 0.710243 69.0919 0.59193 70.2412L2.286 70.4156ZM3.19324 63.7878C3.38704 62.6641 3.59866 61.5607 3.82745 60.4773L2.16117 60.1254C1.92795 61.2298 1.71235 62.354 1.51499 63.4984L3.19324 63.7878ZM4.57613 57.2412C4.85425 56.1378 5.15086 55.0564 5.46518 53.9964L3.83244 53.5123C3.51136 54.595 3.20856 55.699 2.92476 56.8249L4.57613 57.2412ZM6.4836 50.8136C6.84902 49.7515 7.23297 48.7124 7.63457 47.6957L6.05064 47.07C5.63962 48.1106 5.24687 49.1736 4.87323 50.2595L6.4836 50.8136ZM8.94144 44.6012C9.40396 43.5746 9.88525 42.5725 10.3843 41.5942L8.86729 40.8203C8.35569 41.8231 7.8625 42.8501 7.38873 43.9016L8.94144 44.6012ZM11.9664 38.6736C12.5291 37.6938 13.1105 36.7397 13.7093 35.8107L12.2779 34.8881C11.6633 35.8414 11.0668 36.8203 10.4896 37.8254L11.9664 38.6736ZM15.5894 33.0531C16.2444 32.1441 16.9168 31.261 17.6054 30.4032L16.2774 29.3371C15.5704 30.2178 14.88 31.1244 14.2077 32.0576L15.5894 33.0531ZM19.7586 27.86C20.5062 27.0222 21.2699 26.2108 22.0483 25.425L20.8384 24.2265C20.0395 25.0331 19.2555 25.866 18.4879 26.7261L19.7586 27.86ZM24.4573 23.1147C25.2843 22.3612 26.1253 21.6335 26.9786 20.931L25.8962 19.6162C25.0212 20.3365 24.1587 21.0828 23.3103 21.8559L24.4573 23.1147ZM29.6047 18.8753C30.5031 18.2066 31.4129 17.5633 32.3325 16.9444L31.3816 15.5315C30.4401 16.1651 29.5083 16.824 28.5878 17.5091L29.6047 18.8753ZM35.1494 15.1416C36.1066 14.5594 37.0721 14.0016 38.0444 13.4674L37.2243 11.9748C36.2307 12.5208 35.2434 13.0911 34.2643 13.6866L35.1494 15.1416ZM41.0092 11.9195C42.0136 11.4216 43.023 10.9472 44.0357 10.4952L43.3416 8.94007C42.3085 9.40114 41.2783 9.88529 40.2529 10.3936L41.0092 11.9195ZM47.1161 9.19159C48.1599 8.77321 49.2051 8.37731 50.2497 8.00276L49.6749 6.39968C48.6112 6.78108 47.5463 7.1844 46.4825 7.61081L47.1161 9.19159ZM53.4267 6.92693C54.5013 6.58385 55.5731 6.26231 56.6396 5.96106L56.1766 4.32216C55.0923 4.62846 54.0022 4.95549 52.9088 5.30456L53.4267 6.92693ZM59.8832 5.1015C60.9822 4.82904 62.0729 4.57727 63.153 4.34476L62.7945 2.67987C61.6979 2.91597 60.59 3.17169 59.4734 3.44852L59.8832 5.1015ZM66.445 3.68754C67.5647 3.4812 68.6694 3.2949 69.7558 3.12693L69.4956 1.4439C68.3935 1.61429 67.2728 1.8033 66.1364 2.01271L66.445 3.68754ZM73.0823 2.66051C74.222 2.51691 75.3362 2.39299 76.4209 2.28652L76.2546 0.591639C75.1548 0.699584 74.0251 0.825227 72.8694 0.970839L73.0823 2.66051ZM79.7662 2.00411C80.9258 1.9221 82.0416 1.85968 83.1077 1.81352L83.0341 0.11209C81.9529 0.158891 80.8216 0.222189 79.6461 0.305332L79.7662 2.00411ZM86.4759 1.71534C87.0488 1.70687 87.6011 1.70301 88.1316 1.70301V-1.97332e-05C87.5928 -1.97332e-05 87.0321 0.0039064 86.4507 0.0124949L86.4759 1.71534Z" fill="black"/>
</svg>
