<svg width="167" height="123" viewBox="0 0 167 123" fill="none" xmlns="http://www.w3.org/2000/svg">
<path d="M165.799 46.6588C167.732 39.7222 114.011 13.5393 86.9093 1.31497C84.7298 2.97332 79.5179 7.51244 76.1064 12.4022C72.3538 8.64959 66.2038 9.3224 63.5978 10.1279L60.6128 8.5643C59.523 9.74884 57.2582 11.7199 56.917 10.1279C56.4906 8.13787 41.9919 3.73142 41.4234 4.72642C40.8548 5.72143 34.0319 15.3872 33.7476 15.3872C33.4633 15.3872 31.4733 14.3922 29.4833 15.3872C27.4933 14.1079 16.4061 45.6638 14.4161 49.2174C12.5682 48.9331 9.58317 55.3296 6.7403 60.4468C4.23857 60.4468 3.80266 64.9954 3.89742 67.2697C5.03456 67.554 6.34226 70.0273 2.47595 77.6462C-2.35694 87.1698 7.02454 87.0277 12.7103 88.4491C16.5482 91.4341 15.9796 90.4391 15.2689 91.292C14.7003 91.9743 25.8349 94.1348 31.4733 95.1299C37.5855 99.1099 60.6127 106.359 69.2835 109.344C76.5328 114.177 114.059 119.721 114.912 120.858C115.765 121.995 122.872 119.294 125.999 117.02C128.557 119.152 167.647 50.2124 165.799 46.6588Z" stroke="#FFB800" stroke-width="2.27023"/>
</svg>
