<svg width="82" height="66" viewBox="0 0 82 66" fill="none" xmlns="http://www.w3.org/2000/svg">
<path d="M32.3395 2.48752C32.2393 0.15748 15.0761 1.38207 6.507 2.28562C5.98505 5.22602 4.76357 11.7272 4.05329 14.2089C1.81564 15.3264 1.49415 25.9421 1.1982 26.9761C0.902249 28.0101 1.97491 35.9883 1.34074 38.2041C0.833394 39.9766 12.8614 44.1118 18.9388 45.9578C19.741 45.3883 21.312 43.6964 21.178 41.4845C21.4739 40.4505 29.9966 48.6432 33.5193 52.5282C32.7145 58.6905 53.7121 62.9423 55.9909 63.9142C58.2698 64.8861 76.3147 64.9367 76.6106 63.9027C79.1014 63.0174 80.0091 62.6379 80.8547 59.6836C79.9908 56.5597 78.5356 54.3852 75.2858 53.455C73.8922 54.974 58.9974 43.3593 56.6558 40.9311C55.1573 41.1415 49.8483 20.6038 48.6478 15.3059C52.5949 14.358 38.2267 4.81181 32.3395 2.48752Z" stroke="#FFB800" stroke-width="2.27023" stroke-linejoin="round"/>
</svg>
