<svg width="66" height="63" viewBox="0 0 66 63" fill="none" xmlns="http://www.w3.org/2000/svg">
<path d="M49.422 1.21208L64.4383 9.33363L64.5768 12.0332C54.389 14.8084 33.9815 20.412 33.854 20.6252C33.6945 20.8917 29.0833 22.2247 29.3421 22.7692C29.6008 23.3138 26.9643 27.9996 26.0414 33.6829C25.2249 35.978 17.9002 59.2932 15.5548 60.9799C13.6786 62.3292 13.7725 61.1593 14.7985 62.1976L1.20495 48.4413C0.687412 47.3522 3.49661 39.819 4.10127 38.4827C4.70592 37.1464 10.9955 11.653 11.5401 11.3943C12.1486 9.86545 11.9053 8.5507 17.3082 8.08108C21.6306 7.70538 40.5184 3.34521 49.422 1.21208Z" stroke="#FFB800" stroke-width="2.27023"/>
</svg>
