<svg width="174" height="162" viewBox="0 0 174 162" fill="none" xmlns="http://www.w3.org/2000/svg">
<path d="M80.2848 20.8255C79.0056 21.1098 36.792 52.5213 36.2235 53.0898C32.1016 56.1693 23.6873 62.2147 23.0051 61.7599C22.1523 61.1914 6.37549 72.7042 3.39072 74.5519C0.832272 74.5519 0.832321 95.1613 1.54299 95.3034C2.25365 95.4455 7.37045 100.562 10.3552 106.39C6.80189 111.08 8.08106 110.796 13.1979 115.202C15.0456 117.192 20.1624 117.476 22.1523 115.913C24.1422 114.349 25.9899 116.197 25.4214 116.766C24.8528 117.334 24.1422 120.461 24.5686 122.024C24.995 123.588 26.9848 123.019 27.5534 124.014C28.1219 125.009 27.8376 128.989 26.9848 130.552C26.3026 131.803 27.6481 138.086 28.4062 141.07C28.643 144.718 34.0346 149.712 34.3758 149.598C34.8021 149.456 38.4976 149.598 39.3504 148.746C40.2032 147.893 42.1931 149.03 43.7566 154.289C45.32 159.548 42.7616 159.263 51.5739 159.263C59.8176 163.812 63.6552 157.274 65.3608 156.705C67.0664 156.136 124.915 105.679 127.473 103.831C130.031 102.268 162.864 71.5671 169.26 66.0239C175.23 60.0543 171.961 58.633 170.682 57.2117C169.829 55.5061 163.149 49.2522 158.742 48.1151C156.753 48.1151 150.072 56.2167 150.214 55.5061C150.357 54.7954 149.646 51.2421 151.067 50.6735C152.489 50.105 137.565 36.4602 135.006 32.9069C134.011 30.2063 132.732 34.6125 129.747 34.8967C126.762 35.181 129.037 36.6023 124.062 32.9069C126.194 30.2063 122.214 22.6733 120.651 20.8255C119.087 18.9778 110.986 13.1503 113.26 11.0183C115.534 8.88633 114.539 3.05887 112.691 1.21113C111.128 0.642589 105.585 3.48525 103.453 5.04873C101.036 6.47006 81.564 20.5413 80.2848 20.8255Z" stroke="#FFB800" stroke-width="2.27023" stroke-linejoin="round"/>
</svg>
