<svg width="94" height="223" viewBox="0 0 94 223" fill="none" xmlns="http://www.w3.org/2000/svg">
<path d="M93.1467 103.812H94V103.801L93.9997 103.791L93.1467 103.812ZM20.1429 216.14C19.8189 216.482 19.8337 217.022 20.1759 217.346L25.7524 222.625C26.0946 222.949 26.6347 222.935 26.9586 222.592C27.2826 222.25 27.2678 221.71 26.9256 221.386L21.9687 216.693L26.6616 211.736C26.9856 211.394 26.9708 210.854 26.6286 210.53C26.2864 210.206 25.7464 210.221 25.4224 210.563L20.1429 216.14ZM4.4725e-07 1.70649C0.541334 1.70649 1.09434 1.71148 1.65839 1.72189L1.68985 0.0156721C1.11533 0.00507624 0.551835 -2.00722e-05 -4.4725e-07 -1.97735e-05L4.4725e-07 1.70649ZM5.02498 1.84441C6.1144 1.90326 7.23575 1.98218 8.38543 2.08354L8.5353 0.383631C7.36614 0.280555 6.22551 0.200266 5.11703 0.140389L5.02498 1.84441ZM11.7338 2.43495C12.8251 2.56777 13.9369 2.72098 15.0666 2.89634L15.3283 1.21003C14.1799 1.03175 13.0495 0.875987 11.94 0.740942L11.7338 2.43495ZM18.3809 3.46687C19.4661 3.67216 20.5646 3.89827 21.674 4.14662L22.0468 2.48133C20.9185 2.22876 19.8015 1.99884 18.6981 1.7901L18.3809 3.46687ZM24.9425 4.93631C26.0152 5.2148 27.0959 5.51464 28.1827 5.83705L28.668 4.20103C27.5621 3.87293 26.4626 3.56786 25.3713 3.28456L24.9425 4.93631ZM31.3904 6.85017C32.4441 7.2035 33.5016 7.57877 34.5613 7.97706L35.1617 6.37966C34.0825 5.97402 33.0057 5.59191 31.933 5.23221L31.3904 6.85017ZM37.6904 9.21915C38.7147 9.64784 39.7395 10.0989 40.7632 10.5734L41.4808 9.02505C40.4372 8.54143 39.3929 8.08173 38.3492 7.64494L37.6904 9.21915ZM43.7802 12.0423C44.7696 12.5479 45.7566 13.0763 46.7399 13.6285L47.5755 12.1406C46.5723 11.5772 45.5656 11.0383 44.5567 10.5227L43.7802 12.0423ZM49.6371 15.3324C50.5854 15.9162 51.5291 16.5233 52.4666 17.1545L53.4197 15.7389C52.4626 15.0945 51.4994 14.4749 50.5316 13.8792L49.6371 15.3324ZM55.2059 19.0817C56.0999 19.7386 56.987 20.4189 57.8663 21.1232L58.9332 19.7914C58.0352 19.072 57.1293 18.3774 56.2165 17.7066L55.2059 19.0817ZM60.4437 23.2783C61.2816 24.0095 62.1111 24.7641 62.931 25.5428L64.1062 24.3055C63.2687 23.5101 62.4215 22.7393 61.5656 21.9925L60.4437 23.2783ZM65.3082 27.8975C66.0793 28.6939 66.8406 29.5135 67.5911 30.3567L68.8658 29.222C68.0993 28.361 67.3218 27.524 66.5343 26.7105L65.3082 27.8975ZM69.7788 32.92C70.4779 33.7746 71.1664 34.6516 71.8434 35.5515L73.2071 34.5257C72.5162 33.6072 71.8134 32.7119 71.0996 31.8394L69.7788 32.92ZM73.8058 38.2729C74.4392 39.1895 75.0611 40.1282 75.6706 41.0894L77.1118 40.1756C76.4902 39.1953 75.8559 38.2378 75.2096 37.3027L73.8058 38.2729ZM77.404 43.9427C77.9616 44.9012 78.5074 45.8806 79.0406 46.8815L80.5467 46.0791C80.0035 45.0595 79.4474 44.0615 78.8791 43.0846L77.404 43.9427ZM80.5695 49.882C81.0526 50.8739 81.5238 51.8855 81.9825 52.9174L83.5419 52.2241C83.0751 51.1743 82.5956 50.1446 82.1038 49.1348L80.5695 49.882ZM83.3067 56.039C83.7186 57.0576 84.1188 58.0948 84.5067 59.1509L86.1085 58.5626C85.7143 57.4894 85.3076 56.435 84.8888 55.3993L83.3067 56.039ZM85.6227 62.3445C85.9704 63.3917 86.3065 64.4566 86.6305 65.5394L88.2654 65.0502C87.9366 63.9513 87.5954 62.8702 87.2422 61.8067L85.6227 62.3445ZM87.5517 68.7894C87.8381 69.8579 88.1131 70.9431 88.3763 72.0451L90.0361 71.6486C89.7693 70.5316 89.4905 69.4313 89.2 68.3476L87.5517 68.7894ZM89.1172 75.3412C89.3458 76.4242 89.5633 77.5227 89.7694 78.637L91.4474 78.3266C91.2388 77.1984 91.0185 76.0859 90.787 74.9888L89.1172 75.3412ZM90.3446 81.9741C90.5192 83.0652 90.6832 84.1708 90.8362 85.2911L92.527 85.0601C92.3722 83.927 92.2063 82.8085 92.0297 81.7044L90.3446 81.9741ZM91.2591 88.6687C91.3838 89.7624 91.4984 90.8696 91.6026 91.9904L93.3018 91.8324C93.1965 90.7 93.0807 89.581 92.9546 88.4754L91.2591 88.6687ZM91.8837 95.3938C91.9632 96.4914 92.033 97.6015 92.0929 98.7244L93.797 98.6336C93.7365 97.5 93.6661 96.379 93.5858 95.2705L91.8837 95.3938ZM92.2418 102.112C92.2616 102.683 92.279 103.257 92.2938 103.834L93.9997 103.791C93.9848 103.208 93.9673 102.629 93.9473 102.053L92.2418 102.112ZM92.2935 103.812C92.2935 104.392 92.2918 104.968 92.2884 105.542L93.9949 105.552C93.9983 104.975 94 104.395 94 103.812H92.2935ZM92.2483 108.952C92.2282 110.086 92.2013 111.209 92.1679 112.321L93.8736 112.372C93.9073 111.253 93.9343 110.123 93.9546 108.982L92.2483 108.952ZM92.0426 115.747C91.9938 116.878 91.938 117.996 91.8754 119.103L93.5792 119.2C93.6422 118.085 93.6984 116.959 93.7475 115.821L92.0426 115.747ZM91.6571 122.529C91.5767 123.661 91.4889 124.781 91.3938 125.889L93.0941 126.035C93.1899 124.919 93.2783 123.791 93.3593 122.65L91.6571 122.529ZM91.0749 129.293C90.9599 130.425 90.837 131.543 90.7065 132.647L92.4012 132.848C92.5328 131.734 92.6567 130.607 92.7727 129.466L91.0749 129.293ZM90.2769 136.034C90.1239 137.161 89.9628 138.273 89.7936 139.371L91.4802 139.631C91.6509 138.523 91.8136 137.401 91.9679 136.264L90.2769 136.034ZM89.2413 142.741C89.047 143.858 88.8442 144.96 88.6329 146.046L90.308 146.372C90.5215 145.274 90.7264 144.162 90.9226 143.033L89.2413 142.741ZM87.9442 149.397C87.7033 150.509 87.4532 151.603 87.1943 152.681L88.8536 153.079C89.1155 151.989 89.3684 150.882 89.612 149.759L87.9442 149.397ZM86.3597 155.982C86.0661 157.087 85.7627 158.174 85.45 159.243L87.0878 159.722C87.4046 158.64 87.7117 157.539 88.009 156.42L86.3597 155.982ZM84.4601 162.467C84.1078 163.562 83.7453 164.637 83.3727 165.691L84.9818 166.26C85.3598 165.19 85.7275 164.1 86.0846 162.99L84.4601 162.467ZM82.203 168.853C81.7904 169.919 81.3672 170.963 80.9338 171.986L82.5049 172.652C82.9455 171.612 83.3755 170.552 83.7944 169.469L82.203 168.853ZM79.558 175.086C79.0778 176.12 78.5866 177.131 78.0848 178.119L79.6062 178.892C80.1172 177.886 80.6173 176.857 81.1059 175.805L79.558 175.086ZM76.5066 181.088C75.9493 182.09 75.3806 183.066 74.8009 184.017L76.258 184.905C76.8497 183.935 77.4298 182.939 77.998 181.917L76.5066 181.088ZM72.984 186.863C72.3512 187.809 71.7069 188.728 71.0518 189.62L72.4273 190.63C73.0974 189.718 73.7561 188.778 74.4026 187.811L72.984 186.863ZM69.0007 192.284C68.2863 193.168 67.5605 194.023 66.824 194.85L68.0982 195.985C68.8531 195.138 69.5967 194.262 70.3282 193.356L69.0007 192.284ZM64.5188 197.311C63.7214 198.12 62.913 198.898 62.0943 199.647L63.2459 200.906C64.0865 200.138 64.9162 199.339 65.7342 198.508L64.5188 197.311ZM59.5525 201.85C58.6773 202.568 57.7918 203.255 56.8971 203.911L57.9061 205.287C58.826 204.613 59.736 203.907 60.6352 203.169L59.5525 201.85ZM54.133 205.823C53.1865 206.439 52.2308 207.024 51.2672 207.577L52.1172 209.057C53.1082 208.488 54.091 207.887 55.0643 207.253L54.133 205.823ZM48.3077 209.169C47.3 209.675 46.2849 210.149 45.2636 210.593L45.9434 212.158C46.9935 211.702 48.0373 211.214 49.0736 210.694L48.3077 209.169ZM42.1446 211.846C41.0883 212.238 40.0267 212.598 38.9609 212.928L39.4662 214.558C40.561 214.219 41.6518 213.849 42.7373 213.447L42.1446 211.846ZM35.7228 213.839C34.6312 214.115 33.5366 214.361 32.4403 214.579L32.7728 216.253C33.8974 216.029 35.0207 215.776 36.1412 215.493L35.7228 213.839ZM29.1231 215.151C28.0088 215.315 26.8941 215.451 25.7802 215.56L25.9462 217.258C27.087 217.147 28.2292 217.008 29.3713 216.84L29.1231 215.151ZM22.4203 215.808C21.8593 215.836 21.2988 215.858 20.7391 215.873L20.7858 217.579C21.3584 217.563 21.9319 217.541 22.5061 217.512L22.4203 215.808Z" fill="black"/>
</svg>
